# xmcd
#
# Track frame offsets: 
#        150
#        22965
#        43777
#        59988
#        79583
#        96788
#        118084
#        133696
#        147119
#        166516
#        186071
#        205729
#        225216
#        246750
#        263018
#        284567
#
# Disc length: 4097 seconds
#
# Revision: 0
# Processed by: cddbd v1.5.2PL0 Copyright (c) Steve Scherf et al.
# Submitted via: ExactAudioCopy v1.0b1
#
DISCID=d80fff10
DTITLE=五木ひろし - 五木ひろし全曲集2010
DYEAR=2009
DGENRE=JPop
TTITLE0=紅い花
TTITLE1=追憶
TTITLE2=おまえとふたり ~ニューバージョン~
TTITLE3=宿り木の花 
TTITLE4=ふたりの夜明け 
TTITLE5=細雪 ~ニューバージョン~
TTITLE6=港・ひとり唄 
TTITLE7=夜空 ~ニューバージョン~
TTITLE8=最後の恋物語 
TTITLE9=浪花盃
TTITLE10=橋場の渡し 
TTITLE11=千曲川 ~ニューバージョン~
TTITLE12=長良川艶歌 ~ニューバージョン~
TTITLE13=よこはま・たそがれ ~ニューバージョン~
TTITLE14=ふりむけば日本海 
TTITLE15=凍て鶴 
EXTD=
EXTT0=
EXTT1=
EXTT2=
EXTT3=
EXTT4=
EXTT5=
EXTT6=
EXTT7=
EXTT8=
EXTT9=
EXTT10=
EXTT11=
EXTT12=
EXTT13=
EXTT14=
EXTT15=
PLAYORDER=
